# xmcd
#
# Track frame offsets: 
#        150
#        15407
#        27407
#        43592
#        62420
#        74402
#        85415
#        99345
#        114620
#        127787
#
# Disc length: 1949 seconds
#
# Revision: 0
# Processed by: cddbd v1.5.2PL0 Copyright (c) Steve Scherf et al.
# Submitted via: ExactAudioCopy v0.95b4
#
DISCID=78079b0a
DTITLE=Kenny Rogers - Kenny
DYEAR=2002
DGENRE=Country
TTITLE0=Just Dropped In
TTITLE1=Me and Bobby McGee
TTITLE2=The Way It Used To Be
TTITLE3=The King Of Oak Street
TTITLE4=A Poem For My Lady
TTITLE5=Always Leaving Always Gone
TTITLE6=But You Know I Love You
TTITLE7=Tell It All Brother
TTITLE8=Sleep Comes Easy
TTITLE9=I Believe In Music
EXTD=
EXTT0=
EXTT1=
EXTT2=
EXTT3=
EXTT4=
EXTT5=
EXTT6=
EXTT7=
EXTT8=
EXTT9=
PLAYORDER=
